<?xml version="1.0" standalone="no"?>
<!DOCTYPE svg PUBLIC "-//W3C//DTD SVG 20010904//EN"
 "http://www.w3.org/TR/2001/REC-SVG-20010904/DTD/svg10.dtd">
<svg version="1.0" xmlns="http://www.w3.org/2000/svg"
 width="225.000000pt" height="225.000000pt" viewBox="0 0 225.000000 225.000000"
 preserveAspectRatio="xMidYMid meet">

<g transform="translate(0.000000,225.000000) scale(0.100000,-0.100000)"
fill="#000000" stroke="none">
<path d="M1706 1634 c-38 -53 -64 -99 -59 -103 4 -5 67 -42 140 -84 l132 -76
-23 62 c-79 206 -109 283 -116 290 -3 4 -37 -36 -74 -89z"/>
<path d="M860 1443 c-75 -10 -73 -49 3 -44 23 1 48 8 56 16 15 14 7 36 -12 33
-7 0 -28 -3 -47 -5z"/>
<path d="M850 1103 c-34 -5 -53 -20 -44 -35 8 -13 89 -9 109 5 10 8 15 19 11
25 -7 12 -12 12 -76 5z"/>
<path d="M840 761 c-48 -8 -47 -35 1 -39 43 -4 92 14 87 31 -5 14 -39 17 -88
8z"/>
<path d="M1981 301 c-17 -41 -79 -96 -126 -111 -53 -18 -127 -8 -174 23 -45
30 -55 21 -44 -36 20 -105 96 -170 199 -170 131 0 228 125 195 249 -6 22 -17
48 -24 58 -13 17 -14 17 -26 -13z"/>
</g>
</svg>
