<?xml version="1.0" standalone="no"?>
<!DOCTYPE svg PUBLIC "-//W3C//DTD SVG 20010904//EN"
 "http://www.w3.org/TR/2001/REC-SVG-20010904/DTD/svg10.dtd">
<svg version="1.0" xmlns="http://www.w3.org/2000/svg"
 width="225.000000pt" height="225.000000pt" viewBox="0 0 225.000000 225.000000"
 preserveAspectRatio="xMidYMid meet">

<g transform="translate(0.000000,225.000000) scale(0.100000,-0.100000)"
fill="#000000" stroke="none">
<path d="M1426 2155 c-94 -27 -178 -76 -245 -144 -141 -142 -193 -347 -136
-540 l17 -54 -38 -38 c-23 -24 -34 -43 -31 -53 11 -28 42 -17 91 33 l48 49
-23 69 c-45 133 -25 294 51 414 120 185 367 267 573 189 133 -50 246 -172 288
-312 28 -90 23 -224 -10 -310 -48 -124 -155 -227 -289 -279 -82 -32 -231 -32
-321 0 l-63 23 -265 -263 c-145 -145 -269 -272 -275 -283 -9 -16 7 -35 111
-140 l121 -122 -50 -49 -50 -49 -119 118 c-119 118 -151 137 -159 92 -3 -13
32 -55 114 -137 l118 -119 -49 -50 -49 -50 -122 121 c-136 136 -127 133 -199
60 l-39 -41 -103 102 -103 102 45 46 c46 47 53 80 16 80 -20 0 -131 -110 -131
-130 0 -15 259 -280 273 -280 5 0 32 22 61 50 l52 49 114 -114 c63 -63 122
-115 131 -115 21 0 319 297 319 318 0 9 -52 69 -115 132 l-115 115 243 242
242 243 50 -17 c80 -26 244 -23 327 5 174 60 308 201 353 373 19 71 19 210 0
284 -43 164 -176 307 -340 366 -77 27 -247 35 -319 14z"/>
<path d="M1572 1915 c-181 -92 -129 -366 72 -383 138 -11 235 85 224 223 -12
144 -164 226 -296 160z m158 -53 c102 -51 106 -192 8 -252 -99 -60 -226 22
-215 139 6 51 30 87 77 112 43 24 85 24 130 1z"/>
<path d="M761 1116 c-109 -109 -152 -159 -148 -170 4 -9 14 -16 24 -16 10 0
86 68 168 150 126 126 148 153 139 167 -6 9 -15 18 -20 20 -5 2 -78 -66 -163
-151z"/>
<path d="M442 797 c-90 -91 -108 -122 -76 -134 19 -7 204 172 204 198 0 13
-18 29 -34 29 -1 0 -43 -42 -94 -93z"/>
</g>
</svg>
