<?xml version="1.0" standalone="no"?>
<!DOCTYPE svg PUBLIC "-//W3C//DTD SVG 20010904//EN"
 "http://www.w3.org/TR/2001/REC-SVG-20010904/DTD/svg10.dtd">
<svg version="1.0" xmlns="http://www.w3.org/2000/svg"
 width="225.000000pt" height="225.000000pt" viewBox="0 0 225.000000 225.000000"
 preserveAspectRatio="xMidYMid meet">

<g transform="translate(0.000000,225.000000) scale(0.100000,-0.100000)"
fill="#000000" stroke="none">
<path d="M896 2229 c-24 -19 -26 -26 -26 -104 0 -78 2 -85 26 -104 17 -13 41
-21 65 -21 l39 0 0 -85 c0 -84 0 -85 -27 -91 -16 -3 -68 -17 -117 -30 -49 -14
-90 -23 -91 -22 -2 2 -19 31 -40 66 -20 34 -48 70 -62 79 -25 17 -28 16 -99
-21 -52 -28 -76 -47 -85 -68 -13 -32 -10 -40 47 -140 l27 -46 -70 -69 c-169
-166 -260 -370 -270 -605 -9 -188 22 -329 108 -487 122 -227 333 -390 586
-453 125 -31 324 -31 442 1 253 67 459 227 580 452 86 158 117 299 108 487
-10 234 -101 439 -268 603 -133 131 -278 206 -491 253 -28 6 -28 7 -28 91 l0
85 39 0 c24 0 48 8 65 21 24 19 26 26 26 104 0 78 -2 85 -26 104 -38 30 -158
31 -176 1 -9 -15 -24 -20 -53 -20 -29 0 -44 5 -53 20 -18 30 -138 29 -176 -1z
m386 -473 c162 -31 305 -105 425 -220 121 -114 201 -249 244 -411 31 -115 31
-298 0 -415 -171 -645 -970 -859 -1433 -384 -74 75 -107 122 -151 209 -194
386 -72 851 289 1094 175 117 418 167 626 127z"/>
<path d="M947 1639 c-148 -36 -303 -135 -400 -254 -58 -72 -120 -195 -144
-285 -27 -100 -24 -283 6 -380 41 -134 96 -226 191 -320 96 -96 178 -148 295
-187 73 -25 93 -27 235 -27 147 0 159 2 237 30 119 45 187 89 284 184 72 71
93 101 132 180 65 131 81 200 81 340 0 134 -23 232 -80 341 -159 301 -508 459
-837 378z m163 -292 c28 -17 28 -87 0 -105 -17 -10 -20 -23 -20 -81 0 -65 -1
-69 -25 -75 -13 -3 -40 -20 -59 -36 -28 -25 -42 -30 -85 -30 -61 0 -115 -20
-130 -48 -19 -35 -13 -89 13 -119 21 -24 32 -28 97 -31 65 -4 78 -8 104 -32
71 -68 170 -67 240 0 l30 29 199 3 198 3 27 33 c22 26 35 32 66 32 l38 0 -7
-61 c-10 -81 -59 -215 -77 -210 -32 9 -52 5 -63 -12 -9 -15 -7 -22 13 -38 21
-18 22 -21 8 -42 -30 -45 -96 -113 -140 -145 -45 -32 -46 -32 -57 -12 -7 14
-19 20 -33 18 -18 -2 -22 -9 -21 -40 1 -35 -1 -38 -50 -57 -45 -19 -172 -50
-202 -51 -6 0 -14 13 -17 29 -3 16 -13 31 -21 34 -19 8 -46 -18 -46 -44 0 -10
-6 -19 -12 -19 -32 1 -158 32 -204 51 -49 19 -51 22 -50 57 1 31 -3 38 -21 40
-14 2 -26 -4 -33 -18 -11 -20 -12 -20 -57 12 -44 32 -110 100 -140 145 -14 21
-13 24 8 42 20 16 22 23 13 38 -11 17 -31 21 -63 12 -18 -5 -67 129 -77 209
l-6 60 28 4 c23 2 29 8 29 28 0 20 -6 26 -27 28 -23 3 -28 8 -28 30 0 40 27
147 51 202 20 46 22 48 45 38 17 -8 27 -8 39 2 21 17 19 35 -7 52 l-22 15 39
52 c22 29 67 75 100 102 60 49 60 49 76 28 9 -12 24 -19 35 -17 15 3 19 11 17
40 -2 35 -1 36 55 57 62 22 130 39 177 43 l30 3 3 -118 c2 -104 5 -119 22
-130z m496 41 l29 -33 -32 29 c-18 17 -33 31 -33 33 0 8 8 1 36 -29z m65 -111
c-10 -9 -11 -8 -5 6 3 10 9 15 12 12 3 -3 0 -11 -7 -18z m106 -209 c-3 -8 -6
-5 -6 6 -1 11 2 17 5 13 3 -3 4 -12 1 -19z m-306 -46 c-102 -1 -188 1 -192 5
-5 5 78 6 184 3 l192 -5 -184 -3z m-285 -11 c93 -57 49 -201 -61 -201 -52 0
-89 27 -105 75 -23 71 30 145 105 145 17 0 44 -9 61 -19z m535 -38 c13 -16 12
-17 -3 -4 -17 13 -22 21 -14 21 2 0 10 -8 17 -17z m-776 -53 c0 -29 -2 -30
-46 -30 -34 0 -49 4 -53 16 -10 26 13 44 58 44 39 0 41 -2 41 -30z m705 15
c10 -12 10 -18 0 -30 -10 -12 -43 -15 -179 -15 l-166 0 0 30 0 30 166 0 c136
0 169 -3 179 -15z"/>
</g>
</svg>
