<?xml version="1.0" encoding="UTF-8"?>
<svg version="1.1" xmlns="http://www.w3.org/2000/svg" width="225" height="225">
<path d="M0 0 C74.25 0 148.5 0 225 0 C225 74.25 225 148.5 225 225 C150.75 225 76.5 225 0 225 C0 150.75 0 76.5 0 0 Z " fill="#030303" transform="translate(0,0)"/>
<path d="M0 0 C74.25 0 148.5 0 225 0 C225 74.25 225 148.5 225 225 C150.75 225 76.5 225 0 225 C0 150.75 0 76.5 0 0 Z M52.1875 14.25 C50.61814697 14.5742395 50.61814697 14.5742395 49.01708984 14.9050293 C35.73916152 17.77397006 19.47529126 21.65979432 11.26953125 33.49609375 C9.13773192 37.70065797 8.87277842 41.24326121 8.85955811 45.93867493 C8.85384796 47.1541098 8.84813782 48.36954468 8.84225464 49.62181091 C8.84100938 50.96572866 8.83988426 52.30964652 8.83886719 53.65356445 C8.83423696 55.07135141 8.82921202 56.48913712 8.82382202 57.90692139 C8.810716 61.75620486 8.80425662 65.6054709 8.79981136 69.45477319 C8.79687783 71.86096127 8.7927725 74.26714461 8.78830719 76.67333031 C8.7746372 84.20556564 8.76496802 91.73779012 8.7611053 99.270037 C8.75662516 107.95788324 8.73907727 116.64557211 8.7101047 125.33337051 C8.68847315 132.05367806 8.67840024 138.77394138 8.67706418 145.49428338 C8.67601724 149.50583112 8.67013305 153.51723082 8.65224457 157.52874184 C8.63573824 161.30364326 8.63362068 165.07828575 8.64238358 168.85321045 C8.64315258 170.23546735 8.6388293 171.61773832 8.62892532 172.99995995 C8.57171552 181.48464931 8.53584113 187.82263195 14.125 194.5625 C39.53623066 216.10680425 80.16862144 215.41951689 111.6875 215.3125 C112.77951721 215.31100952 113.87153442 215.30951904 114.99664307 215.3079834 C131.50805302 215.26754902 147.68327777 214.74336421 164 212 C164.91217285 211.85546387 165.8243457 211.71092773 166.76416016 211.56201172 C183.12795338 208.91341784 201.62176594 205.05131631 212.7734375 191.84375 C215.57233973 187.63648295 216.25223868 183.91299114 216.27415466 178.90983582 C216.28911736 177.07416801 216.28911736 177.07416801 216.30438232 175.20141602 C216.30527803 173.85327161 216.30594165 172.50512704 216.30639648 171.15698242 C216.31402181 169.73081531 216.32244995 168.30465229 216.33161926 166.87849426 C216.35353482 163.01059997 216.36235921 159.14278471 216.36744571 155.27483535 C216.37109285 152.85606374 216.37733478 150.43731271 216.3844471 148.01854897 C216.40893166 139.57379881 216.42199128 131.12911 216.42553711 122.68432617 C216.42917132 114.82314376 216.45906081 106.96235202 216.50094169 99.10128897 C216.53567716 92.34356835 216.55108611 85.585977 216.55178314 78.82816774 C216.55257487 74.79582123 216.56126508 70.76387284 216.58978081 66.73161888 C216.61601768 62.93685533 216.61813608 59.14281839 216.60212517 55.34800529 C216.60031508 53.95970826 216.60696175 52.57136891 216.62294388 51.18316269 C216.72310035 41.91437205 215.77580526 36.17042326 209.44911861 29.32097149 C194.75371392 14.65748156 167.42480165 13.13123202 148 11 C147.29606613 10.91666916 146.59213226 10.83333832 145.86686707 10.7474823 C139.36003081 10.02410533 132.93029054 9.83917069 126.38671875 9.83203125 C125.29647903 9.82870285 124.20623932 9.82537445 123.08296204 9.82194519 C120.78276995 9.8169075 118.48257064 9.81453588 116.18237305 9.81469727 C112.73538497 9.81253011 109.2887277 9.79439354 105.84179688 9.77539062 C87.77110958 9.72811174 69.92425513 10.55246959 52.1875 14.25 Z " fill="#FCFCFC" transform="translate(0,0)"/>
<path d="M0 0 C3.677523 0.70551539 7.12206892 1.66663162 10.6875 2.8125 C21.85795509 6.06165573 33.48473348 7.49210095 45 9 C45.63673141 9.08890503 46.27346283 9.17781006 46.92948914 9.26940918 C53.5729707 10.11827881 60.16523813 10.14452312 66.85546875 10.1328125 C68.07470535 10.13376923 69.29394196 10.13472595 70.55012512 10.13571167 C73.12106376 10.13638963 75.69200414 10.13456222 78.26293945 10.13037109 C82.15775491 10.12504071 86.05245383 10.13031726 89.94726562 10.13671875 C92.45833358 10.13605745 94.96940147 10.13477522 97.48046875 10.1328125 C98.62678268 10.13483673 99.77309662 10.13686096 100.95414734 10.13894653 C113.20616016 10.10418716 125.27838602 9.19640435 137.375 7.25 C138.4470166 7.07952148 139.5190332 6.90904297 140.62353516 6.73339844 C148.37473749 5.43202523 155.67312702 3.54370719 163.0859375 0.953125 C166 0 166 0 169 0 C169.23272688 4.06153166 169.37454311 8.12135243 169.5 12.1875 C169.56703125 13.33798828 169.6340625 14.48847656 169.703125 15.67382812 C169.89596986 23.99026256 169.89596986 23.99026256 167.36376953 26.84399414 C165.28808173 28.17250272 163.29963967 29.12290424 161 30 C160.13117188 30.40347656 159.26234375 30.80695313 158.3671875 31.22265625 C151.86725177 33.41307346 145.29187396 34.85663943 138.5625 36.125 C137.73669434 36.28363525 136.91088867 36.44227051 136.06005859 36.60571289 C118.96331214 39.63900662 101.70286736 40.38027697 84.375 40.3125 C82.94681442 40.31026428 82.94681442 40.31026428 81.48977661 40.3079834 C65.83205669 40.26414486 50.47642735 39.56809337 35 37 C34.09556152 36.85014648 33.19112305 36.70029297 32.25927734 36.54589844 C5.25436556 31.86537831 5.25436556 31.86537831 0 25 C-0.34057617 22.36450195 -0.34057617 22.36450195 -0.29296875 19.23828125 C-0.28330078 18.12001953 -0.27363281 17.00175781 -0.26367188 15.84960938 C-0.23853516 14.68236328 -0.21339844 13.51511719 -0.1875 12.3125 C-0.17396484 11.13365234 -0.16042969 9.95480469 -0.14648438 8.74023438 C-0.11109326 5.82636589 -0.06171809 2.91341055 0 0 Z " fill="#FBFBFB" transform="translate(28,157)"/>
<path d="M0 0 C5.445 1.485 5.445 1.485 11 3 C25.82962661 6.87851773 40.76392588 8.52988413 56 10 C56.91483154 10.09788818 57.82966309 10.19577637 58.7722168 10.29663086 C85.92506726 13.07664231 114.14403668 11.00276013 141 6.625 C142.22203125 6.42817627 143.4440625 6.23135254 144.703125 6.02856445 C151.60715436 4.83242996 158.07775925 3.15963792 164.671875 0.78271484 C167 0 167 0 169 0 C169 8.58 169 17.16 169 26 C162.38032621 29.3098369 157.02981582 31.90604544 150.0625 33.625 C149.25474121 33.8302832 148.44698242 34.03556641 147.61474609 34.24707031 C127.56934919 39.17022909 107.63236464 40.18684937 87.07299805 40.18530273 C83.83694178 40.18748353 80.60123041 40.20567967 77.36523438 40.22460938 C56.20458787 40.28201182 35.2855001 38.39949647 14.875 32.5625 C14.18849365 32.36938232 13.5019873 32.17626465 12.79467773 31.97729492 C11.80963257 31.68109253 11.80963257 31.68109253 10.8046875 31.37890625 C10.23733887 31.2094751 9.66999023 31.04004395 9.08544922 30.86547852 C5.91243802 29.54865287 2.98276965 27.7044398 0 26 C0 17.42 0 8.84 0 0 Z " fill="#FBFBFB" transform="translate(28,63)"/>
<path d="M0 0 C3.12278572 0.60100827 6.19076313 1.28176882 9.2578125 2.12109375 C10.44503906 2.44110352 10.44503906 2.44110352 11.65625 2.76757812 C13.27926763 3.20800142 14.90168455 3.65064552 16.5234375 4.09570312 C28.08165164 7.19964289 39.66412443 8.63258342 51.5625 9.625 C52.33957306 9.69036957 53.11664612 9.75573914 53.91726685 9.8230896 C77.82332039 11.78761667 102.20176264 12.42470289 126 9 C127.40016357 8.79866455 127.40016357 8.79866455 128.82861328 8.59326172 C140.42981452 6.86314038 151.62670854 4.54353565 162.796875 0.953125 C166 0 166 0 169 0 C169 8.58 169 17.16 169 26 C142.94320996 39.02839502 113.15653007 40.23257197 84.4375 40.25 C83.43855713 40.25067474 82.43961426 40.25134949 81.41040039 40.25204468 C21.28147509 40.18765006 21.28147509 40.18765006 0 26 C-0.34057617 23.38623047 -0.34057617 23.38623047 -0.29296875 20.1171875 C-0.2784668 18.36728516 -0.2784668 18.36728516 -0.26367188 16.58203125 C-0.23853516 15.35871094 -0.21339844 14.13539062 -0.1875 12.875 C-0.17396484 11.64394531 -0.16042969 10.41289063 -0.14648438 9.14453125 C-0.11103543 6.09592157 -0.06162079 3.048175 0 0 Z " fill="#FCFCFC" transform="translate(28,110)"/>
<path d="M0 0 C0.95367462 0.00182281 1.90734924 0.00364563 2.8899231 0.00552368 C60.10737608 0.1886854 60.10737608 0.1886854 83.5 13.3125 C83.83 13.9725 84.16 14.6325 84.5 15.3125 C60.07997462 27.44165168 30.66222765 28.85925506 3.84594727 28.70361328 C0.56679622 28.68752108 -2.7111199 28.70358737 -5.99023438 28.72265625 C-30.97962927 28.74804582 -60.06573824 27.65922486 -82.5 15.3125 C-75.77568954 7.7218795 -64.05692383 6.55706554 -54.5 4.6875 C-53.52933594 4.48382813 -52.55867188 4.28015625 -51.55859375 4.0703125 C-34.50920383 0.67349918 -17.33881001 -0.06933169 0 0 Z " fill="#FBFBFB" transform="translate(111.5,27.6875)"/>
</svg>
