<svg id="Layer_1" data-name="Layer 1" xmlns="http://www.w3.org/2000/svg" viewBox="0 0 100 60">
  <defs>
    <style>
      .cls-1{fill:#CBC3E3;} /* Background color */
      .cls-3{fill:none;stroke:#958531;stroke-miterlimit:10;} /* Stroke for the grid */
    </style>
  </defs>

  <!-- Background rectangle -->
  <rect class="cls-1" x="-6.26" y="-4.6" width="113.58" height="69.2"/>

  <!-- Trigger icon path inserted -->
  <g transform="scale(0.0065, 0.0065) translate(6855, 6715)">
    <path d="M1075 2236 c-17 -7 -36 -20 -44 -29 -7 -10 -26 -17 -42 -17 -18 0
-32 -7 -39 -19 -15 -28 12 -51 60 -51 32 0 44 6 62 30 16 22 30 30 53 30 23 0
37 -8 53 -30 l23 -30 129 0 130 0 0 -93 c0 -148 27 -137 -335 -137 -362 0
-335 -11 -335 137 0 85 2 93 19 93 31 0 53 28 41 51 -8 14 -21 19 -53 19 -46
0 -67 -13 -67 -42 0 -17 -13 -18 -184 -18 -181 0 -185 -1 -213 -24 l-28 -24 0
-1017 0 -1017 28 -24 28 -24 764 0 764 0 28 24 28 24 0 1017 0 1017 -28 24
c-28 23 -32 24 -213 24 -171 0 -184 1 -184 18 0 37 -20 42 -156 42 -110 0
-134 3 -145 17 -16 19 -70 43 -96 43 -10 -1 -32 -7 -48 -14z m-345 -201 l0
-25 -143 0 c-98 0 -147 -4 -155 -12 -17 -17 -17 -1849 0 -1866 17 -17 1369
-17 1386 0 9 9 12 194 12 773 0 818 0 812 -48 786 l-22 -12 0 -744 0 -745
-635 0 -635 0 0 875 0 875 120 0 c102 0 120 -2 120 -15 0 -32 32 -77 65 -91
50 -20 610 -20 660 0 33 14 65 59 65 91 0 13 18 15 120 15 l120 0 0 -70 c0
-60 3 -71 21 -80 38 -21 49 2 49 104 0 58 -4 96 -12 104 -8 8 -57 12 -155 12
l-143 0 0 25 0 25 180 0 180 0 0 -995 0 -995 -755 0 -755 0 0 995 0 995 180 0
180 0 0 -25z"/>
<path d="M862 1728 c-7 -7 -12 -33 -12 -59 l0 -47 -50 -7 c-67 -9 -137 -57
-167 -114 -60 -114 4 -265 127 -302 l40 -12 -21 -23 c-42 -45 1 -86 46 -44
l24 22 3 -33 3 -34 55 0 c52 0 55 1 55 25 0 18 -6 26 -22 28 -22 3 -23 8 -23
93 l0 89 205 0 205 0 0 -90 0 -89 -132 -3 -133 -3 0 -25 0 -25 165 0 165 0 3
58 c3 53 5 57 28 57 66 0 138 -60 150 -126 13 -70 -36 -148 -106 -169 l-25 -7
23 24 c28 30 28 55 1 63 -14 5 -28 0 -45 -16 l-24 -22 0 24 c0 14 -5 30 -12
37 -17 17 -509 17 -526 0 -7 -7 -12 -33 -12 -59 l0 -46 -45 -6 c-119 -17 -195
-100 -195 -214 1 -61 27 -120 73 -160 42 -37 91 -53 161 -53 l49 0 -22 -24
c-13 -13 -21 -32 -19 -43 5 -26 41 -28 63 -3 26 29 31 25 27 -24 -2 -24 1 -53
7 -65 11 -20 19 -21 179 -21 117 0 172 4 180 12 8 8 12 53 12 138 l0 126 40
39 c26 25 40 47 38 60 -4 26 -35 31 -59 9 -18 -16 -37 -18 -177 -15 -188 3
-211 -1 -219 -41 -5 -26 -7 -27 -23 -13 -22 20 -59 19 -67 -1 -3 -8 4 -29 16
-45 l22 -29 -33 0 c-91 0 -170 54 -184 124 -15 85 56 176 137 176 l39 0 0 -48
c0 -26 5 -53 12 -60 17 -17 509 -17 526 0 7 7 12 22 12 35 l0 24 30 -22 c24
-18 32 -20 45 -9 20 17 19 33 -5 55 -26 24 -25 35 4 35 39 0 117 60 143 109
71 135 -32 311 -181 311 l-35 0 -3 58 -3 57 -270 0 -270 0 -3 -34 -3 -33 -24
22 c-43 40 -88 3 -49 -41 16 -18 16 -19 -1 -19 -9 0 -34 17 -55 38 -48 48 -59
95 -35 157 20 54 62 86 121 93 l44 5 0 -50 c0 -27 5 -54 12 -61 17 -17 509
-17 526 0 17 17 17 269 0 286 -17 17 -509 17 -526 0z m468 -143 l0 -85 -205 0
-205 0 0 85 0 85 205 0 205 0 0 -85z m0 -730 l0 -85 -205 0 -205 0 0 85 0 85
205 0 205 0 0 -85z m-135 -325 l-49 -50 -32 31 c-34 33 -66 36 -72 5 -4 -21
83 -116 107 -116 8 0 35 19 58 42 l43 42 0 -72 0 -72 -120 0 -120 0 0 120 0
120 117 0 117 0 -49 -50z"/>
<path d="M859 1994 c-9 -11 -10 -20 -2 -32 9 -15 38 -17 268 -17 230 0 259 2
268 17 8 12 7 21 -2 32 -12 14 -48 16 -266 16 -218 0 -254 -2 -266 -16z"/>
  </g>
</svg>
