<svg id="Layer_1" data-name="Layer 1" xmlns="http://www.w3.org/2000/svg" viewBox="0 0 100 60">
  <defs>
    <style>
      .cls-1{fill:#90EE90;} /* Background color */
      .cls-3{fill:none;stroke:#958531;stroke-miterlimit:10;} /* Stroke for the grid */
    </style>
  </defs>

  <!-- Background rectangle -->
  <rect class="cls-1" x="-6.26" y="-4.6" width="113.58" height="69.2"/>

  <!-- Trigger icon path inserted -->
  <g transform="scale(0.0065, 0.0065) translate(6855, 6715)">
   <path d="M992 2235 c-38 -17 -62 -64 -62 -124 0 -39 -1 -41 -42 -51 -74 -18
-130 -41 -215 -85 l-81 -43 -24 25 c-32 34 -71 53 -109 53 -28 0 -47 -14 -126
-93 -79 -79 -93 -98 -93 -126 0 -38 19 -77 53 -109 l25 -24 -43 -81 c-44 -85
-67 -141 -85 -214 -10 -42 -12 -43 -51 -43 -62 0 -107 -24 -124 -64 -20 -48
-20 -214 0 -262 17 -40 62 -64 124 -64 39 0 41 -1 51 -42 18 -74 41 -130 85
-215 l43 -81 -25 -24 c-34 -32 -53 -71 -53 -109 0 -28 14 -47 93 -126 79 -79
98 -93 126 -93 42 0 66 13 119 63 47 46 55 82 21 92 -17 6 -32 -3 -68 -39 -26
-25 -56 -46 -67 -46 -25 0 -154 129 -154 155 0 11 21 41 47 67 l48 49 -28 47
c-56 94 -97 189 -120 277 l-24 90 -69 5 c-38 3 -75 9 -81 13 -18 11 -18 213 0
224 6 4 43 10 81 13 l69 5 24 90 c23 88 64 183 120 277 l28 47 -48 49 c-26 26
-47 57 -47 68 0 25 129 154 155 154 11 0 41 -21 67 -47 l49 -48 47 28 c94 56
189 97 277 120 l90 24 5 69 c3 38 9 75 13 82 16 24 27 11 27 -34 0 -79 7 -84
114 -84 83 0 94 -2 99 -19 3 -12 18 -21 43 -26 84 -15 193 -57 277 -105 54
-31 96 -49 106 -45 22 7 49 -22 57 -62 5 -27 0 -38 -35 -76 -23 -24 -41 -49
-41 -54 0 -6 20 -48 44 -94 39 -74 59 -127 94 -244 8 -28 12 -30 71 -36 97 -9
106 -23 106 -164 0 -141 -9 -155 -106 -164 -59 -6 -63 -8 -71 -36 -35 -117
-55 -170 -94 -244 -24 -46 -44 -88 -44 -94 0 -5 18 -29 40 -53 23 -26 40 -53
40 -67 0 -35 -37 -79 -60 -72 -12 4 -51 -13 -107 -45 -84 -48 -193 -90 -277
-105 -25 -5 -40 -14 -43 -26 -5 -17 -16 -19 -99 -19 -107 0 -114 -5 -114 -84
0 -45 -11 -58 -27 -33 -4 6 -10 43 -13 81 l-5 69 -80 21 c-44 12 -106 32 -137
45 -32 13 -65 21 -73 17 -22 -8 -18 -43 8 -60 26 -18 115 -51 175 -66 41 -10
42 -12 42 -51 0 -62 24 -107 64 -124 48 -20 214 -20 262 0 40 17 64 62 64 124
0 39 1 41 43 51 73 18 129 41 214 85 l81 43 24 -25 c32 -34 71 -53 109 -53 28
0 47 14 126 93 79 79 93 98 93 126 0 38 -19 77 -53 109 l-25 24 43 81 c44 85
67 141 85 215 10 41 12 42 51 42 62 0 107 24 124 64 20 48 20 214 0 262 -17
40 -62 64 -124 64 -39 0 -41 1 -51 43 -18 73 -41 129 -85 214 l-43 81 25 24
c57 53 68 118 29 165 -32 38 -101 107 -139 139 -47 39 -112 28 -165 -29 l-24
-25 -81 43 c-85 44 -141 67 -214 85 -42 10 -43 12 -43 51 0 62 -24 107 -64
124 -47 20 -219 20 -264 0z"/>
<path d="M1037 1889 c-114 -23 -229 -99 -290 -192 -30 -44 -48 -60 -109 -89
-128 -64 -243 -204 -278 -338 -22 -86 -33 -109 -54 -112 -30 -4 -30 -62 0 -66
21 -3 32 -26 54 -112 37 -141 157 -283 292 -345 63 -29 173 -55 233 -55 22 0
52 -8 65 -17 21 -15 48 -18 175 -18 l150 1 99 54 c193 106 299 254 327 455 17
125 -13 258 -84 377 -19 30 -36 71 -40 89 -25 155 -161 310 -310 354 -68 20
-170 26 -230 14z m203 -79 c60 -17 142 -73 186 -127 115 -141 118 -342 9 -483
-83 -107 -114 -177 -86 -194 19 -12 49 4 55 29 3 13 29 54 57 90 58 75 95 145
108 201 l8 39 22 -46 c80 -176 32 -410 -113 -554 -34 -33 -76 -68 -94 -78
l-32 -18 0 114 c0 83 -4 118 -13 126 -9 6 -85 12 -207 13 l-193 3 -22 70 c-26
85 -41 113 -99 190 -130 170 -120 381 22 524 105 105 250 142 392 101z m-521
-582 c13 -26 42 -69 63 -95 51 -60 61 -82 87 -174 15 -55 21 -104 21 -183 l0
-107 -32 18 c-18 10 -60 45 -94 78 -146 144 -193 377 -113 555 l21 45 12 -45
c6 -25 22 -66 35 -92z m571 -420 l0 -43 -165 -4 -165 -3 0 46 0 46 165 0 165
0 0 -42z m0 -131 c0 -49 -16 -55 -150 -62 -146 -7 -173 1 -178 53 l-3 32 165
0 166 0 0 -23z"/>
<path d="M1236 1521 l-59 -60 -32 25 c-52 39 -72 33 -158 -54 -54 -54 -76 -83
-72 -94 14 -36 37 -28 105 38 l69 66 27 -21 c48 -38 78 -29 158 49 60 59 69
72 60 87 -20 32 -38 25 -98 -36z"/>
<path d="M1856 1204 c-9 -8 -16 -22 -16 -29 0 -7 -10 -15 -22 -17 -33 -4 -33
-62 -1 -66 12 -2 24 -13 27 -27 8 -32 45 -43 63 -19 7 10 13 23 13 30 0 7 10
14 23 16 31 4 32 62 2 66 -12 2 -26 15 -32 32 -12 33 -33 38 -57 14z"/>
  </g>
</svg>
