<svg id="Layer_1" data-name="Layer 1" xmlns="http://www.w3.org/2000/svg" viewBox="0 0 100 60">
  <defs>
    <style>
      .cls-1{fill:#fde783;} /* Background color */
      .cls-2{fill:#958531;} /* Table color */
      .cls-3{fill:none;stroke:#958531;stroke-miterlimit:10;} /* Stroke for the grid */
    </style>
  </defs>
  
  <!-- Background rectangle -->
  <rect class="cls-1" x="-6.26" y="-4.6" width="113.58" height="69.2"/>
  
  <!-- Table icon path inserted -->
  <g transform="translate(25,210.000000) translate(15, -150) scale(0.0100000,-0.0100000)" fill="#000000" stroke="none">
    <path d="M81 1917 c-19 -7 -44 -25 -55 -40 -21 -28 -21 -33 -21 -752 0 -719 0
    -724 21 -752 11 -15 36 -33 55 -40 25 -9 248 -12 866 -12 743 -1 833 1 847 15
    35 35 8 54 -76 54 l-69 0 3 108 3 107 263 3 262 2 0 -99 c0 -69 -4 -102 -13
    -108 -6 -4 -68 -10 -137 -13 l-125 -5 -3 -27 c-4 -36 18 -41 156 -37 83 3 115
    8 136 22 57 38 56 25 56 782 0 758 1 744 -56 782 -26 17 -68 18 -664 21 -349
    1 -645 0 -656 -3 -27 -6 -38 -33 -23 -51 9 -12 121 -14 651 -14 422 0 646 -4
    659 -10 18 -10 19 -23 19 -165 l0 -155 -860 0 -860 0 0 165 0 164 143 3 c141
    3 142 3 145 27 2 13 -2 28 -10 32 -21 14 -617 10 -657 -4z m311 -222 l3 -165
    -162 0 -163 0 0 149 c0 190 -9 181 182 181 l137 0 3 -165z m8 -770 l0 -535
    -149 0 c-123 0 -152 3 -165 16 -14 14 -16 76 -16 535 l0 519 165 0 165 0 0
    -535z m590 425 l0 -110 -262 2 -263 3 -3 108 -3 107 266 0 265 0 0 -110z m600
    0 l0 -110 -265 0 -265 0 0 110 0 110 265 0 265 0 0 -110z m590 0 l0 -110 -262
    2 -263 3 -3 108 -3 107 266 0 265 0 0 -110z m-1190 -280 l0 -110 -265 0 -265
    0 0 103 c0 57 3 107 7 110 3 4 123 7 265 7 l258 0 0 -110z m600 0 l0 -110
    -265 0 -265 0 0 110 0 110 265 0 265 0 0 -110z m590 0 l0 -110 -265 0 -265 0
    0 103 c0 57 3 107 7 110 3 4 123 7 265 7 l258 0 0 -110z m-1190 -290 l0 -110
    -262 2 -263 3 -3 108 -3 107 266 0 265 0 0 -110z m600 0 l0 -110 -265 0 -265
    0 0 110 0 110 265 0 265 0 0 -110z m590 0 l0 -110 -262 2 -263 3 -3 108 -3
    107 266 0 265 0 0 -110z m-1190 -280 l0 -110 -265 0 -265 0 0 103 c0 57 3 107
    7 110 3 4 123 7 265 7 l258 0 0 -110z m600 0 l0 -110 -265 0 -265 0 0 110 0
    110 265 0 265 0 0 -110z"/>
  </g>
</svg>
