<svg id="Layer_1" data-name="Layer 1" xmlns="http://www.w3.org/2000/svg" viewBox="0 0 100 60">
  <defs>
    <style>
      .cls-1{fill:#F39C12;} /* Background color */
      .cls-3{fill:black;stroke:black;stroke-miterlimit:10;stroke-width:30} /* Stroke for the grid */
    </style>
  </defs>
  
  <!-- Background rectangle -->
  <rect class="cls-1" x="-6.26" y="-4.6" width="113.58" height="69.2"/>
  
  <!-- Trigger Icon Path (with key inserted and lightning bolt added) -->
  <g transform="translate(24,210.000000) translate(15, -150) scale(0.00800000,-0.00800000)" fill="#000000" stroke="none">
    <!-- Key Icon Path (inserted) -->
    <path class="cls-3" d="M995 2165 c-163 -31 -291 -98 -405 -214 -148 -150 -220 -322 -220
    -532 0 -213 92 -420 251 -563 56 -50 163 -118 217 -137 l32 -11 0 -71 0 -71
    -53 52 c-47 46 -57 52 -95 52 -60 0 -92 -33 -92 -94 0 -25 5 -48 10 -51 6 -4
    72 -83 146 -176 205 -257 249 -285 436 -277 96 4 120 8 163 30 59 31 95 67
    127 128 22 43 23 55 25 299 l3 255 54 42 c180 142 285 362 286 600 1 461 -434
    824 -885 739z m259 -50 c227 -36 421 -191 521 -413 75 -170 75 -394 -1 -564
    -56 -126 -115 -202 -220 -284 -37 -29 -43 -30 -65 -18 -28 16 -68 18 -89 4
    -13 -8 -29 3 -30 21 0 3 28 23 62 44 82 51 129 94 181 169 88 124 130 285 109
    419 -47 306 -298 527 -597 527 -299 0 -550 -221 -597 -526 -26 -169 52 -388
    184 -510 38 -36 136 -104 149 -104 5 0 9 -27 9 -60 0 -33 -2 -60 -5 -60 -12 0
    -112 54 -154 84 -107 75 -180 166 -236 294 -42 96 -55 163 -55 282 0 119 13
    186 55 282 71 162 187 281 349 359 132 64 268 81 430 54z m1 -160 c101 -26
    183 -72 254 -144 179 -179 216 -431 98 -656 -61 -115 -233 -255 -314 -255 -13
    0 -33 -5 -44 -11 -17 -8 -26 -5 -56 22 -32 28 -41 31 -80 25 l-43 -6 0 90 c0
    101 -9 129 -52 154 -38 23 -86 15 -119 -20 -21 -23 -24 -36 -27 -124 l-4 -98
    -36 21 c-58 33 -154 136 -189 202 -47 90 -67 168 -67 265 0 251 168 468 415
    534 71 19 190 20 264 1z m-242 -833 c14 -16 17 -55 19 -293 3 -236 5 -274 18
    -274 12 0 16 26 20 158 4 142 7 160 24 173 28 20 50 18 72 -7 17 -19 20 -43
    24 -233 4 -179 7 -211 20 -211 13 0 15 29 18 194 1 123 6 199 13 208 14 16 60
    17 82 1 14 -11 17 -38 19 -188 3 -154 5 -175 20 -178 15 -3 17 13 20 148 3
    136 5 153 22 166 27 19 52 18 76 -6 19 -19 20 -33 20 -241 0 -247 -5 -278 -58
    -339 -56 -66 -100 -83 -223 -88 -91 -4 -113 -1 -152 16 -63 28 -123 86 -230
    222 -50 63 -108 134 -129 157 -57 64 -50 123 15 123 22 0 45 -15 96 -65 37
    -36 73 -65 79 -65 9 0 12 77 12 298 0 253 2 301 16 320 19 27 64 29 87 4z"/>

    <path class="cls-3" d="M1164 1782 c-12 -8 -231 -343 -241 -368 -10 -26 16 -34 107 -34 l85
0 -7 -157 c-7 -160 -2 -192 26 -163 21 22 189 411 190 440 1 25 -1 25 -82 28
l-83 3 6 32 c27 151 32 203 22 214 -7 7 -17 9 -23 5z m-42 -213 c-4 -30 -7
-60 -4 -67 2 -8 29 -12 78 -12 51 0 74 -4 74 -12 0 -12 -108 -268 -117 -278
-3 -3 -3 45 -2 105 l4 110 -55 2 c-30 2 -70 5 -87 8 l-33 6 73 109 c39 60 73
103 75 96 2 -7 -1 -37 -6 -67z"/>
  </g>



</svg>
